{"title":"The Boxtrolls 2014 HDRIP Studio Audio X264 AC3 TiTAN","uid":11538952,"size":1525630394,"categoryP":"video","categoryS":"movies","magnet":"?xt=urn:btih:9d4989c70c098d1ac89cc6341f8bb1ec3968bf8f&amp;dn=The+Boxtrolls+2014+HDRIP+Studio+Audio+X264+AC3+TiTAN&amp;tr=udp%3A%2F%2Ftracker.openbittorrent.com%3A80&amp;tr=udp%3A%2F%2Fopen.demonii.com%3A1337&amp;tr=udp%3A%2F%2Ftracker.coppersurfer.tk%3A6969&amp;tr=udp%3A%2F%2Fexodus.desync.com%3A6969","seeders":6,"leechers":0,"uploader":"xxxlavalxxx","files":-1,"time":1416655731,"description":"[IMG]http://i.imgur.com/zwxCwD1.jpg[/IMG]\n &lt;a href=&quot;\nhttp://www.imdb.com/title/tt0787474/&quot; rel=&quot;nofollow&quot; target=&quot;_NEW&quot;&gt;\nhttp://www.imdb.com/title/tt0787474/&lt;/a&gt;\n\n\nA young orphaned boy raised by underground cave-dwelling trash collectors tries to save his friends from an evil exterminator. Based on the children's novel 'Here Be Monsters' by Alan Snow.\n\nDirectors: Graham Annable, Anthony Stacchi\nWriters: Irena Brignull (screenplay), Adam Pava (screenplay)\nStars: Ben Kingsley, Jared Harris, Nick Frost \nGenres: Animation,Adventure,Comedy,Family,Fantasy\nCountry: USA\nLanguage: English\n\n\nSource: RUS Itunes/CHN Webrip\n\nGeneral\n\nFormat                                   : Matroska\nFormat version                           : Version 2\nFile size                                : 1.42 GiB\nDuration                                 : 1h 36mn\nOverall bit rate mode                    : Variable\nOverall bit rate                         : 2 115 Kbps\nEncoded date                             : UTC 2014-11-22 09:27:44\n\nVideo\nID                                       : 1\nFormat                                   : AVC\nFormat/Info                              : Advanced Video Codec\nFormat profile                           : &lt;a class=&quot;__cf_email__&quot; href=&quot;/cdn-cgi/l/email-protection&quot; data-cfemail=&quot;d890b1bfb09894ecf6e9&quot;&gt;[email&amp;#160;protected]&lt;/a&gt;&lt;script cf-hash='f9e31' type=&quot;text/javascript&quot;&gt;\n/* &lt;![CDATA[ */!function(){try{var t=&quot;currentScript&quot;in document?document.currentScript:function(){for(var t=document.getElementsByTagName(&quot;script&quot;),e=t.length;e--;)if(t[e].getAttribute(&quot;cf-hash&quot;))return t[e]}();if(t&amp;&amp;t.previousSibling){var e,r,n,i,c=t.previousSibling,a=c.getAttribute(&quot;data-cfemail&quot;);if(a){for(e=&quot;&quot;,r=parseInt(a.substr(0,2),16),n=2;a.length-n;n+=2)i=parseInt(a.substr(n,2),16)^r,e+=String.fromCharCode(i);e=document.createTextNode(e),c.parentNode.replaceChild(e,c)}}}catch(u){}}();/* ]]&gt; */&lt;/script&gt;\nFormat settings, CABAC                   : Yes\nFormat settings, ReFrames                : 3 frames\nFormat settings, GOP                     : M=4, N=23\nCodec ID                                 : V_MPEG4/ISO/AVC\nDuration                                 : 1h 36mn\nBit rate mode                            : Variable\nBit rate                                 : 1 881 Kbps\nMaximum bit rate                         : 40.0 Mbps\nWidth                                    : 720 pixels\nHeight                                   : 400 pixels\nDisplay aspect ratio                     : 16:9\nFrame rate mode                          : Constant\nFrame rate                               : 23.976 fps\nColor space                              : YUV\nChroma subsampling                       : 4:2:0\nBit depth                                : 8 bits\nScan type                                : Progressive\nBits/(Pixel*Frame)                       : 0.272\nStream size                              : 1.26 GiB (89%)\nDefault                                  : Yes\nForced                                   : No\nColor primaries                          : BT.709\nTransfer characteristics                 : BT.709\nMatrix coefficients                      : BT.709\n\nAudio\nID                                       : 2\nFormat                                   : AC-3\nFormat/Info                              : Audio Coding 3\nMode extension                           : CM (complete main)\nFormat settings, Endianness              : Big\nCodec ID                                 : A_AC3\nDuration                                 : 1h 36mn\nBit rate mode                            : Constant\nBit rate                                 : 192 Kbps\nChannel(s)                               : 2 channels\nChannel positions                        : Front: L R\nSampling rate                            : 48.0 KHz\nBit depth                                : 16 bits\nCompression mode                         : Lossy\nDelay relative to video                  : 3s 25ms\nStream size                              : 132 MiB (9%)\nDefault                                  : Yes\nForced                                   : No\n\n\nscreens\n &lt;a href=&quot;\nhttp://i.imgur.com/YCh5E8m.jpg&quot; rel=&quot;nofollow&quot; target=&quot;_NEW&quot;&gt;\nhttp://i.imgur.com/YCh5E8m.jpg&lt;/a&gt; &lt;a href=&quot;\nhttp://i.imgur.com/LLZZsgs.jpg&quot; rel=&quot;nofollow&quot; target=&quot;_NEW&quot;&gt;\nhttp://i.imgur.com/LLZZsgs.jpg&lt;/a&gt; &lt;a href=&quot;\nhttp://i.imgur.com/XAAQCH7.jpg&quot; rel=&quot;nofollow&quot; target=&quot;_NEW&quot;&gt;\nhttp://i.imgur.com/XAAQCH7.jpg&lt;/a&gt; &lt;a href=&quot;\nhttp://i.imgur.com/LkWzjm2.jpg&quot; rel=&quot;nofollow&quot; target=&quot;_NEW&quot;&gt;\nhttp://i.imgur.com/LkWzjm2.jpg&lt;/a&gt;","torrent":{"xt":"urn:btih:9d4989c70c098d1ac89cc6341f8bb1ec3968bf8f","amp;dn":"The+Boxtrolls+2014+HDRIP+Studio+Audio+X264+AC3+TiTAN","amp;tr":["udp%3A%2F%2Ftracker.openbittorrent.com%3A80","udp%3A%2F%2Fopen.demonii.com%3A1337","udp%3A%2F%2Ftracker.coppersurfer.tk%3A6969","udp%3A%2F%2Fexodus.desync.com%3A6969"],"infoHash":"9d4989c70c098d1ac89cc6341f8bb1ec3968bf8f","infoHashBuffer":{"type":"Buffer","data":[157,73,137,199,12,9,141,26,200,156,198,52,31,139,177,236,57,104,191,143]},"announce":[],"urlList":[]}}